<mxfile host="Electron" modified="2023-04-25T17:50:34.145Z" agent="Mozilla/5.0 (Windows NT 10.0; Win64; x64) AppleWebKit/537.36 (KHTML, like Gecko) draw.io/21.2.1 Chrome/112.0.5615.87 Electron/24.1.2 Safari/537.36" etag="SMh7PzsEVFKhEyaepc-5" version="21.2.1" type="device">
  <diagram name="Page-1" id="0G3cWIgrQkO_UifREBxP">
    <mxGraphModel dx="1434" dy="854" grid="1" gridSize="10" guides="1" tooltips="1" connect="1" arrows="1" fold="1" page="1" pageScale="1" pageWidth="850" pageHeight="1100" math="0" shadow="0">
      <root>
        <mxCell id="0" />
        <mxCell id="1" parent="0" />
        <mxCell id="ekkS8kJisOpImc3o1tuu-4" style="edgeStyle=orthogonalEdgeStyle;rounded=0;orthogonalLoop=1;jettySize=auto;html=1;exitX=0.5;exitY=1;exitDx=0;exitDy=0;entryX=0.5;entryY=0;entryDx=0;entryDy=0;" edge="1" parent="1" source="ekkS8kJisOpImc3o1tuu-1" target="ekkS8kJisOpImc3o1tuu-3">
          <mxGeometry relative="1" as="geometry" />
        </mxCell>
        <mxCell id="ekkS8kJisOpImc3o1tuu-1" value="Begin Program" style="rounded=0;whiteSpace=wrap;html=1;" vertex="1" parent="1">
          <mxGeometry x="60" y="110" width="120" height="40" as="geometry" />
        </mxCell>
        <mxCell id="ekkS8kJisOpImc3o1tuu-6" style="edgeStyle=orthogonalEdgeStyle;rounded=0;orthogonalLoop=1;jettySize=auto;html=1;exitX=0.5;exitY=1;exitDx=0;exitDy=0;entryX=0.5;entryY=0;entryDx=0;entryDy=0;" edge="1" parent="1" source="ekkS8kJisOpImc3o1tuu-3" target="ekkS8kJisOpImc3o1tuu-5">
          <mxGeometry relative="1" as="geometry" />
        </mxCell>
        <mxCell id="ekkS8kJisOpImc3o1tuu-3" value="Enhance Contrast of video stream (Using CLAHE slider)" style="rounded=0;whiteSpace=wrap;html=1;" vertex="1" parent="1">
          <mxGeometry x="60" y="250" width="160" height="60" as="geometry" />
        </mxCell>
        <mxCell id="ekkS8kJisOpImc3o1tuu-8" style="edgeStyle=orthogonalEdgeStyle;rounded=0;orthogonalLoop=1;jettySize=auto;html=1;exitX=1;exitY=0.5;exitDx=0;exitDy=0;entryX=0;entryY=0.5;entryDx=0;entryDy=0;" edge="1" parent="1" source="ekkS8kJisOpImc3o1tuu-5" target="ekkS8kJisOpImc3o1tuu-7">
          <mxGeometry relative="1" as="geometry" />
        </mxCell>
        <mxCell id="ekkS8kJisOpImc3o1tuu-5" value="capture image" style="rounded=0;whiteSpace=wrap;html=1;" vertex="1" parent="1">
          <mxGeometry x="80" y="440" width="120" height="60" as="geometry" />
        </mxCell>
        <mxCell id="ekkS8kJisOpImc3o1tuu-10" style="edgeStyle=orthogonalEdgeStyle;rounded=0;orthogonalLoop=1;jettySize=auto;html=1;exitX=0.5;exitY=1;exitDx=0;exitDy=0;entryX=0.5;entryY=0;entryDx=0;entryDy=0;" edge="1" parent="1" source="ekkS8kJisOpImc3o1tuu-7" target="ekkS8kJisOpImc3o1tuu-9">
          <mxGeometry relative="1" as="geometry" />
        </mxCell>
        <mxCell id="ekkS8kJisOpImc3o1tuu-7" value="apply enhancement operations (grayscale conversion and CLAHE)" style="rounded=0;whiteSpace=wrap;html=1;" vertex="1" parent="1">
          <mxGeometry x="290" y="310" width="180" height="60" as="geometry" />
        </mxCell>
        <mxCell id="ekkS8kJisOpImc3o1tuu-12" style="edgeStyle=orthogonalEdgeStyle;rounded=0;orthogonalLoop=1;jettySize=auto;html=1;exitX=0.5;exitY=1;exitDx=0;exitDy=0;" edge="1" parent="1" source="ekkS8kJisOpImc3o1tuu-9" target="ekkS8kJisOpImc3o1tuu-11">
          <mxGeometry relative="1" as="geometry" />
        </mxCell>
        <mxCell id="ekkS8kJisOpImc3o1tuu-9" value="implement median blur" style="rounded=0;whiteSpace=wrap;html=1;" vertex="1" parent="1">
          <mxGeometry x="330" y="500" width="120" height="60" as="geometry" />
        </mxCell>
        <mxCell id="ekkS8kJisOpImc3o1tuu-14" style="edgeStyle=orthogonalEdgeStyle;rounded=0;orthogonalLoop=1;jettySize=auto;html=1;exitX=1;exitY=0.5;exitDx=0;exitDy=0;entryX=0;entryY=0.5;entryDx=0;entryDy=0;" edge="1" parent="1" source="ekkS8kJisOpImc3o1tuu-11" target="ekkS8kJisOpImc3o1tuu-13">
          <mxGeometry relative="1" as="geometry" />
        </mxCell>
        <mxCell id="ekkS8kJisOpImc3o1tuu-11" value="apply adaptive thresholding" style="rounded=0;whiteSpace=wrap;html=1;" vertex="1" parent="1">
          <mxGeometry x="330" y="650" width="120" height="60" as="geometry" />
        </mxCell>
        <mxCell id="ekkS8kJisOpImc3o1tuu-16" style="edgeStyle=orthogonalEdgeStyle;rounded=0;orthogonalLoop=1;jettySize=auto;html=1;exitX=0.5;exitY=1;exitDx=0;exitDy=0;entryX=0.5;entryY=0;entryDx=0;entryDy=0;" edge="1" parent="1" source="ekkS8kJisOpImc3o1tuu-13" target="ekkS8kJisOpImc3o1tuu-15">
          <mxGeometry relative="1" as="geometry" />
        </mxCell>
        <mxCell id="ekkS8kJisOpImc3o1tuu-13" value="create contours and draw contrours on the image" style="rounded=0;whiteSpace=wrap;html=1;" vertex="1" parent="1">
          <mxGeometry x="560" y="430" width="120" height="60" as="geometry" />
        </mxCell>
        <mxCell id="ekkS8kJisOpImc3o1tuu-18" style="edgeStyle=orthogonalEdgeStyle;rounded=0;orthogonalLoop=1;jettySize=auto;html=1;exitX=0.5;exitY=1;exitDx=0;exitDy=0;" edge="1" parent="1" source="ekkS8kJisOpImc3o1tuu-15" target="ekkS8kJisOpImc3o1tuu-17">
          <mxGeometry relative="1" as="geometry" />
        </mxCell>
        <mxCell id="ekkS8kJisOpImc3o1tuu-15" value="Display skeletal view of vein on the video stream" style="rounded=0;whiteSpace=wrap;html=1;" vertex="1" parent="1">
          <mxGeometry x="560" y="580" width="120" height="60" as="geometry" />
        </mxCell>
        <mxCell id="ekkS8kJisOpImc3o1tuu-17" value="capture screanshot (future reference)" style="rounded=0;whiteSpace=wrap;html=1;" vertex="1" parent="1">
          <mxGeometry x="560" y="740" width="120" height="60" as="geometry" />
        </mxCell>
      </root>
    </mxGraphModel>
  </diagram>
</mxfile>
